<?xml version="1.0" encoding="UTF-8" standalone="no"?>
<!DOCTYPE svg PUBLIC "-//W3C//DTD SVG 1.1//EN" "http://www.w3.org/Graphics/SVG/1.1/DTD/svg11.dtd">
<svg xmlns="http://www.w3.org/2000/svg" version="1.1" viewBox="0.00 0.00 490.00 408.00">
<g stroke-width="2.00" fill="none" stroke-linecap="butt">
<path stroke="#80aca2" vector-effect="non-scaling-stroke" d="
  M 234.25 98.77
  L 234.24 244.25
  Q 234.24 244.75 234.75 244.75
  L 246.21 244.76
  Q 246.76 244.76 246.76 244.22
  L 246.75 99.00
  Q 246.75 98.50 247.25 98.50
  L 284.02 98.51
  Q 284.50 98.51 284.50 98.03
  L 284.52 86.90
  Q 284.52 86.50 284.12 86.50
  L 197.03 86.50
  Q 196.50 86.50 196.50 87.03
  L 196.49 97.98
  Q 196.49 98.50 197.01 98.50
  L 233.98 98.50
  Q 234.25 98.50 234.25 98.77"
/>
<path stroke="#80aca2" vector-effect="non-scaling-stroke" d="
  M 194.64 125.95
  L 232.46 212.94
  Q 232.55 213.15 232.55 212.92
  Q 232.47 199.85 232.49 186.76
  Q 232.50 184.23 231.50 181.92
  Q 215.33 144.59 199.28 107.40
  Q 199.00 106.75 198.29 106.75
  L 181.15 106.74
  Q 180.75 106.74 180.75 107.15
  L 180.75 224.50
  Q 180.75 225.00 181.25 225.00
  L 193.38 224.99
  A 0.62 0.62 0.0 0 0 194.00 224.37
  L 194.00 126.09
  Q 194.00 124.48 194.64 125.95"
/>
<path stroke="#80aca2" vector-effect="non-scaling-stroke" d="
  M 286.30 126.06
  Q 287.00 124.48 287.00 126.21
  L 286.99 224.25
  Q 286.99 225.00 287.75 225.00
  L 299.75 225.00
  Q 300.26 225.00 300.26 224.50
  L 300.25 107.25
  Q 300.25 106.75 299.75 106.75
  L 282.73 106.75
  Q 282.00 106.75 281.71 107.41
  Q 265.59 144.48 249.27 181.91
  Q 248.26 184.23 248.26 186.77
  Q 248.26 199.65 248.23 212.35
  Q 248.23 213.12 248.54 212.41
  L 286.30 126.06"
/>
<path stroke="#80aca2" vector-effect="non-scaling-stroke" d="
  M 66.70 283.69
  Q 66.68 281.82 67.37 283.56
  L 80.42 316.64
  Q 80.66 317.24 81.30 317.26
  L 82.46 317.28
  A 0.77 0.76 -78.2 0 0 83.18 316.80
  L 96.90 281.99
  Q 97.51 280.46 97.51 282.10
  Q 97.49 296.74 97.49 312.25
  Q 97.50 315.22 95.64 316.92
  Q 95.27 317.25 95.76 317.25
  L 107.00 317.28
  Q 107.72 317.28 107.18 316.80
  C 106.01 315.76 105.53 314.96 105.52 313.30
  Q 105.47 295.43 105.53 277.64
  A 2.55 2.17 87.5 0 1 107.47 275.15
  Q 107.72 275.13 107.83 274.96
  Q 107.98 274.75 107.72 274.75
  L 98.07 274.75
  Q 97.43 274.75 97.19 275.35
  L 85.26 305.73
  Q 84.94 306.55 84.61 305.73
  L 72.57 275.17
  A 0.67 0.65 -10.0 0 0 71.97 274.76
  L 61.74 274.72
  Q 61.28 274.72 61.69 274.92
  C 63.13 275.60 64.72 276.98 64.73 278.28
  Q 64.77 295.89 64.74 313.50
  Q 64.73 315.55 62.87 316.85
  Q 62.29 317.26 63.00 317.26
  L 68.26 317.24
  Q 68.93 317.24 68.41 316.83
  C 67.36 316.01 66.73 315.14 66.74 313.68
  Q 66.86 298.20 66.70 283.69"
/>
<path stroke="#80aca2" vector-effect="non-scaling-stroke" d="
  M 276.85 299.96
  Q 278.90 300.00 284.49 300.07
  C 297.06 300.22 285.63 315.41 295.74 317.04
  Q 298.39 317.47 301.90 317.18
  Q 302.24 317.15 301.95 316.98
  C 298.25 314.73 299.15 312.10 298.98 308.45
  C 298.76 303.68 297.00 300.10 292.33 298.28
  A 0.25 0.24 42.9 0 1 292.31 297.83
  C 303.35 292.52 300.42 278.44 289.37 275.52
  Q 286.71 274.82 284.95 274.81
  Q 275.52 274.72 266.05 274.75
  Q 265.50 274.75 265.97 275.05
  Q 268.19 276.45 268.22 279.00
  Q 268.31 286.41 268.23 313.26
  Q 268.23 315.02 266.51 316.70
  Q 265.95 317.25 266.73 317.25
  L 277.75 317.25
  Q 278.38 317.25 277.91 316.83
  C 276.84 315.88 276.30 315.21 276.28 313.66
  Q 276.18 307.08 276.28 300.51
  Q 276.29 299.95 276.85 299.96"
/>
<path stroke="#80aca2" vector-effect="non-scaling-stroke" d="
  M 349.75 275.00
  C 351.14 275.89 351.75 276.77 351.77 278.25
  Q 352.02 296.00 351.99 313.75
  Q 351.99 315.51 350.17 316.84
  Q 349.65 317.22 350.30 317.23
  C 356.95 317.31 366.20 318.07 371.94 316.19
  C 382.59 312.71 386.54 298.89 383.59 289.24
  C 378.16 271.53 364.25 274.85 349.84 274.72
  Q 349.31 274.71 349.75 275.00"
/>
<path stroke="#80aca2" vector-effect="non-scaling-stroke" d="
  M 120.71 306.76
  L 135.54 306.75
  Q 136.11 306.75 136.30 307.29
  C 136.97 309.11 139.94 314.41 138.27 316.79
  Q 137.95 317.25 138.51 317.25
  L 150.51 317.25
  Q 151.23 317.25 150.62 316.86
  C 148.97 315.80 147.74 314.67 146.94 312.54
  Q 139.86 293.85 132.66 275.21
  A 0.72 0.72 0.0 0 0 131.99 274.75
  L 130.76 274.75
  Q 130.18 274.75 129.97 275.30
  Q 122.56 294.54 115.09 313.77
  Q 114.44 315.43 112.11 316.76
  Q 111.26 317.24 112.24 317.25
  L 118.75 317.28
  Q 119.64 317.28 118.67 316.87
  Q 118.08 316.62 117.66 316.12
  A 1.80 1.79 35.0 0 1 117.33 314.29
  L 119.96 307.28
  Q 120.16 306.77 120.71 306.76"
/>
<path stroke="#80aca2" vector-effect="non-scaling-stroke" d="
  M 238.18 277.31
  Q 238.42 306.58 238.22 314.00
  Q 238.18 315.37 236.57 316.79
  Q 236.05 317.26 236.74 317.25
  L 247.97 317.25
  Q 248.31 317.25 248.06 317.02
  Q 246.28 315.38 246.27 312.25
  Q 246.21 294.82 246.27 277.36
  Q 246.27 276.87 246.76 276.84
  C 252.74 276.52 257.13 276.13 260.84 280.15
  Q 261.43 280.79 262.09 281.42
  Q 262.46 281.78 262.38 281.27
  L 261.38 275.27
  Q 261.29 274.75 260.76 274.75
  L 223.79 274.75
  Q 223.32 274.75 223.24 275.21
  L 222.25 280.76
  A 0.43 0.43 0.0 0 0 223.05 281.05
  C 225.96 276.17 232.18 276.57 237.69 276.80
  Q 238.18 276.82 238.18 277.31"
/>
<path stroke="#80aca2" vector-effect="non-scaling-stroke" d="
  M 330.29 307.27
  L 332.96 314.30
  A 1.36 1.30 40.9 0 1 333.03 315.03
  Q 332.87 316.01 332.24 316.70
  Q 331.74 317.25 332.49 317.25
  L 344.51 317.25
  Q 345.24 317.25 344.63 316.85
  C 342.98 315.78 341.78 314.74 340.94 312.54
  Q 333.86 293.89 326.69 275.27
  Q 326.49 274.75 325.94 274.75
  L 324.77 274.75
  Q 324.19 274.75 323.98 275.29
  Q 316.71 294.13 309.40 312.96
  Q 308.44 315.43 306.13 316.81
  Q 305.39 317.25 306.25 317.25
  L 312.25 317.26
  Q 313.12 317.26 312.41 316.77
  Q 311.70 316.29 311.31 315.50
  Q 311.07 314.99 311.26 314.46
  L 313.95 307.28
  Q 314.15 306.75 314.71 306.75
  L 329.53 306.75
  Q 330.09 306.75 330.29 307.27"
/>
<path stroke="#80aca2" vector-effect="non-scaling-stroke" d="
  M 398.48 297.01
  C 402.01 296.82 407.94 296.02 410.18 300.45
  A 0.43 0.43 0.0 0 0 410.99 300.25
  L 411.00 292.00
  Q 411.00 290.49 410.24 291.79
  C 407.80 295.96 402.21 295.42 398.48 295.24
  Q 398.00 295.22 398.00 294.74
  L 398.00 277.27
  Q 398.00 276.77 398.49 276.77
  C 402.83 276.71 409.30 276.35 412.44 276.86
  C 416.43 277.51 416.95 278.94 419.80 281.26
  Q 420.17 281.57 420.10 281.09
  L 419.23 275.20
  Q 419.16 274.75 418.70 274.75
  L 387.75 274.75
  Q 387.15 274.75 387.63 275.11
  Q 389.93 276.88 389.97 279.75
  Q 390.07 288.96 389.98 311.75
  Q 389.97 315.16 388.17 316.98
  Q 387.89 317.25 388.28 317.25
  L 418.68 317.25
  Q 419.12 317.25 419.19 316.81
  L 420.25 310.50
  Q 420.35 309.92 420.01 310.40
  C 415.18 317.29 405.91 315.61 398.49 315.47
  Q 398.00 315.46 398.00 314.98
  L 398.00 297.52
  Q 398.00 297.03 398.48 297.01"
/>
<path stroke="#80aca2" vector-effect="non-scaling-stroke" d="
  M 175.18 290.64
  Q 172.04 285.03 169.23 279.26
  Q 168.16 277.06 168.91 275.58
  Q 169.08 275.24 168.70 275.24
  L 156.50 275.22
  Q 155.53 275.22 156.38 275.68
  Q 158.87 276.99 159.94 279.04
  Q 165.14 288.96 170.39 298.76
  Q 170.55 299.06 170.36 299.35
  Q 165.61 306.60 160.74 313.75
  C 159.50 315.57 158.66 316.06 156.64 317.10
  Q 155.89 317.49 156.73 317.49
  L 163.26 317.50
  Q 164.02 317.50 163.47 316.97
  Q 162.24 315.79 163.04 314.53
  Q 167.16 308.05 171.38 301.68
  A 0.33 0.32 -41.7 0 1 171.94 301.71
  Q 174.92 307.45 177.98 313.27
  Q 179.25 315.67 177.89 317.19
  Q 177.62 317.50 178.03 317.50
  L 190.97 317.50
  Q 191.43 317.50 191.08 317.20
  C 189.66 316.00 188.20 315.37 187.25 313.59
  Q 182.03 303.83 176.92 293.99
  A 0.88 0.87 48.0 0 1 176.96 293.12
  Q 181.64 285.96 186.31 278.81
  Q 187.49 277.01 190.30 275.64
  Q 190.97 275.31 190.23 275.29
  L 184.22 275.16
  Q 183.66 275.15 183.90 275.65
  Q 184.62 277.17 183.51 279.01
  Q 179.93 285.00 175.87 290.68
  Q 175.49 291.21 175.18 290.64"
/>
<path stroke="#80aca2" vector-effect="non-scaling-stroke" d="
  M 276.25 277.04
  L 276.25 297.82
  A 0.40 0.40 0.0 0 0 276.65 298.22
  L 282.14 298.22
  A 9.38 8.85 90.0 0 0 290.99 288.84
  L 290.99 286.02
  A 9.38 8.85 -90.0 0 0 282.14 276.64
  L 276.65 276.64
  A 0.40 0.40 0.0 0 0 276.25 277.04"
/>
<path stroke="#80aca2" vector-effect="non-scaling-stroke" d="
  M 360.07 277.34
  L 359.93 315.00
  A 0.73 0.73 0.0 0 0 360.66 315.74
  L 362.47 315.74
  A 17.90 13.16 -89.8 0 0 375.69 297.89
  L 375.71 294.57
  A 17.90 13.16 -89.8 0 0 362.61 276.62
  L 360.80 276.62
  A 0.73 0.73 0.0 0 0 360.07 277.34"
/>
<path stroke="#80aca2" vector-effect="non-scaling-stroke" d="
  M 121.18 304.29
  A 0.33 0.33 0.0 0 0 121.49 304.74
  L 134.77 304.74
  A 0.33 0.33 0.0 0 0 135.08 304.29
  L 128.44 286.92
  A 0.33 0.33 0.0 0 0 127.82 286.92
  L 121.18 304.29"
/>
<path stroke="#80aca2" vector-effect="non-scaling-stroke" d="
  M 315.14 304.31
  A 0.32 0.32 0.0 0 0 315.44 304.75
  L 328.82 304.75
  A 0.32 0.32 0.0 0 0 329.12 304.31
  L 322.43 286.93
  A 0.32 0.32 0.0 0 0 321.83 286.93
  L 315.14 304.31"
/>
</g>
<path fill="#ffffff" d="
  M 0.00 0.00
  L 490.00 0.00
  L 490.00 408.00
  L 0.00 408.00
  L 0.00 0.00
  Z
  M 234.25 98.77
  L 234.24 244.25
  Q 234.24 244.75 234.75 244.75
  L 246.21 244.76
  Q 246.76 244.76 246.76 244.22
  L 246.75 99.00
  Q 246.75 98.50 247.25 98.50
  L 284.02 98.51
  Q 284.50 98.51 284.50 98.03
  L 284.52 86.90
  Q 284.52 86.50 284.12 86.50
  L 197.03 86.50
  Q 196.50 86.50 196.50 87.03
  L 196.49 97.98
  Q 196.49 98.50 197.01 98.50
  L 233.98 98.50
  Q 234.25 98.50 234.25 98.77
  Z
  M 194.64 125.95
  L 232.46 212.94
  Q 232.55 213.15 232.55 212.92
  Q 232.47 199.85 232.49 186.76
  Q 232.50 184.23 231.50 181.92
  Q 215.33 144.59 199.28 107.40
  Q 199.00 106.75 198.29 106.75
  L 181.15 106.74
  Q 180.75 106.74 180.75 107.15
  L 180.75 224.50
  Q 180.75 225.00 181.25 225.00
  L 193.38 224.99
  A 0.62 0.62 0.0 0 0 194.00 224.37
  L 194.00 126.09
  Q 194.00 124.48 194.64 125.95
  Z
  M 286.30 126.06
  Q 287.00 124.48 287.00 126.21
  L 286.99 224.25
  Q 286.99 225.00 287.75 225.00
  L 299.75 225.00
  Q 300.26 225.00 300.26 224.50
  L 300.25 107.25
  Q 300.25 106.75 299.75 106.75
  L 282.73 106.75
  Q 282.00 106.75 281.71 107.41
  Q 265.59 144.48 249.27 181.91
  Q 248.26 184.23 248.26 186.77
  Q 248.26 199.65 248.23 212.35
  Q 248.23 213.12 248.54 212.41
  L 286.30 126.06
  Z
  M 66.70 283.69
  Q 66.68 281.82 67.37 283.56
  L 80.42 316.64
  Q 80.66 317.24 81.30 317.26
  L 82.46 317.28
  A 0.77 0.76 -78.2 0 0 83.18 316.80
  L 96.90 281.99
  Q 97.51 280.46 97.51 282.10
  Q 97.49 296.74 97.49 312.25
  Q 97.50 315.22 95.64 316.92
  Q 95.27 317.25 95.76 317.25
  L 107.00 317.28
  Q 107.72 317.28 107.18 316.80
  C 106.01 315.76 105.53 314.96 105.52 313.30
  Q 105.47 295.43 105.53 277.64
  A 2.55 2.17 87.5 0 1 107.47 275.15
  Q 107.72 275.13 107.83 274.96
  Q 107.98 274.75 107.72 274.75
  L 98.07 274.75
  Q 97.43 274.75 97.19 275.35
  L 85.26 305.73
  Q 84.94 306.55 84.61 305.73
  L 72.57 275.17
  A 0.67 0.65 -10.0 0 0 71.97 274.76
  L 61.74 274.72
  Q 61.28 274.72 61.69 274.92
  C 63.13 275.60 64.72 276.98 64.73 278.28
  Q 64.77 295.89 64.74 313.50
  Q 64.73 315.55 62.87 316.85
  Q 62.29 317.26 63.00 317.26
  L 68.26 317.24
  Q 68.93 317.24 68.41 316.83
  C 67.36 316.01 66.73 315.14 66.74 313.68
  Q 66.86 298.20 66.70 283.69
  Z
  M 276.85 299.96
  Q 278.90 300.00 284.49 300.07
  C 297.06 300.22 285.63 315.41 295.74 317.04
  Q 298.39 317.47 301.90 317.18
  Q 302.24 317.15 301.95 316.98
  C 298.25 314.73 299.15 312.10 298.98 308.45
  C 298.76 303.68 297.00 300.10 292.33 298.28
  A 0.25 0.24 42.9 0 1 292.31 297.83
  C 303.35 292.52 300.42 278.44 289.37 275.52
  Q 286.71 274.82 284.95 274.81
  Q 275.52 274.72 266.05 274.75
  Q 265.50 274.75 265.97 275.05
  Q 268.19 276.45 268.22 279.00
  Q 268.31 286.41 268.23 313.26
  Q 268.23 315.02 266.51 316.70
  Q 265.95 317.25 266.73 317.25
  L 277.75 317.25
  Q 278.38 317.25 277.91 316.83
  C 276.84 315.88 276.30 315.21 276.28 313.66
  Q 276.18 307.08 276.28 300.51
  Q 276.29 299.95 276.85 299.96
  Z
  M 349.75 275.00
  C 351.14 275.89 351.75 276.77 351.77 278.25
  Q 352.02 296.00 351.99 313.75
  Q 351.99 315.51 350.17 316.84
  Q 349.65 317.22 350.30 317.23
  C 356.95 317.31 366.20 318.07 371.94 316.19
  C 382.59 312.71 386.54 298.89 383.59 289.24
  C 378.16 271.53 364.25 274.85 349.84 274.72
  Q 349.31 274.71 349.75 275.00
  Z
  M 120.71 306.76
  L 135.54 306.75
  Q 136.11 306.75 136.30 307.29
  C 136.97 309.11 139.94 314.41 138.27 316.79
  Q 137.95 317.25 138.51 317.25
  L 150.51 317.25
  Q 151.23 317.25 150.62 316.86
  C 148.97 315.80 147.74 314.67 146.94 312.54
  Q 139.86 293.85 132.66 275.21
  A 0.72 0.72 0.0 0 0 131.99 274.75
  L 130.76 274.75
  Q 130.18 274.75 129.97 275.30
  Q 122.56 294.54 115.09 313.77
  Q 114.44 315.43 112.11 316.76
  Q 111.26 317.24 112.24 317.25
  L 118.75 317.28
  Q 119.64 317.28 118.67 316.87
  Q 118.08 316.62 117.66 316.12
  A 1.80 1.79 35.0 0 1 117.33 314.29
  L 119.96 307.28
  Q 120.16 306.77 120.71 306.76
  Z
  M 238.18 277.31
  Q 238.42 306.58 238.22 314.00
  Q 238.18 315.37 236.57 316.79
  Q 236.05 317.26 236.74 317.25
  L 247.97 317.25
  Q 248.31 317.25 248.06 317.02
  Q 246.28 315.38 246.27 312.25
  Q 246.21 294.82 246.27 277.36
  Q 246.27 276.87 246.76 276.84
  C 252.74 276.52 257.13 276.13 260.84 280.15
  Q 261.43 280.79 262.09 281.42
  Q 262.46 281.78 262.38 281.27
  L 261.38 275.27
  Q 261.29 274.75 260.76 274.75
  L 223.79 274.75
  Q 223.32 274.75 223.24 275.21
  L 222.25 280.76
  A 0.43 0.43 0.0 0 0 223.05 281.05
  C 225.96 276.17 232.18 276.57 237.69 276.80
  Q 238.18 276.82 238.18 277.31
  Z
  M 330.29 307.27
  L 332.96 314.30
  A 1.36 1.30 40.9 0 1 333.03 315.03
  Q 332.87 316.01 332.24 316.70
  Q 331.74 317.25 332.49 317.25
  L 344.51 317.25
  Q 345.24 317.25 344.63 316.85
  C 342.98 315.78 341.78 314.74 340.94 312.54
  Q 333.86 293.89 326.69 275.27
  Q 326.49 274.75 325.94 274.75
  L 324.77 274.75
  Q 324.19 274.75 323.98 275.29
  Q 316.71 294.13 309.40 312.96
  Q 308.44 315.43 306.13 316.81
  Q 305.39 317.25 306.25 317.25
  L 312.25 317.26
  Q 313.12 317.26 312.41 316.77
  Q 311.70 316.29 311.31 315.50
  Q 311.07 314.99 311.26 314.46
  L 313.95 307.28
  Q 314.15 306.75 314.71 306.75
  L 329.53 306.75
  Q 330.09 306.75 330.29 307.27
  Z
  M 398.48 297.01
  C 402.01 296.82 407.94 296.02 410.18 300.45
  A 0.43 0.43 0.0 0 0 410.99 300.25
  L 411.00 292.00
  Q 411.00 290.49 410.24 291.79
  C 407.80 295.96 402.21 295.42 398.48 295.24
  Q 398.00 295.22 398.00 294.74
  L 398.00 277.27
  Q 398.00 276.77 398.49 276.77
  C 402.83 276.71 409.30 276.35 412.44 276.86
  C 416.43 277.51 416.95 278.94 419.80 281.26
  Q 420.17 281.57 420.10 281.09
  L 419.23 275.20
  Q 419.16 274.75 418.70 274.75
  L 387.75 274.75
  Q 387.15 274.75 387.63 275.11
  Q 389.93 276.88 389.97 279.75
  Q 390.07 288.96 389.98 311.75
  Q 389.97 315.16 388.17 316.98
  Q 387.89 317.25 388.28 317.25
  L 418.68 317.25
  Q 419.12 317.25 419.19 316.81
  L 420.25 310.50
  Q 420.35 309.92 420.01 310.40
  C 415.18 317.29 405.91 315.61 398.49 315.47
  Q 398.00 315.46 398.00 314.98
  L 398.00 297.52
  Q 398.00 297.03 398.48 297.01
  Z
  M 175.18 290.64
  Q 172.04 285.03 169.23 279.26
  Q 168.16 277.06 168.91 275.58
  Q 169.08 275.24 168.70 275.24
  L 156.50 275.22
  Q 155.53 275.22 156.38 275.68
  Q 158.87 276.99 159.94 279.04
  Q 165.14 288.96 170.39 298.76
  Q 170.55 299.06 170.36 299.35
  Q 165.61 306.60 160.74 313.75
  C 159.50 315.57 158.66 316.06 156.64 317.10
  Q 155.89 317.49 156.73 317.49
  L 163.26 317.50
  Q 164.02 317.50 163.47 316.97
  Q 162.24 315.79 163.04 314.53
  Q 167.16 308.05 171.38 301.68
  A 0.33 0.32 -41.7 0 1 171.94 301.71
  Q 174.92 307.45 177.98 313.27
  Q 179.25 315.67 177.89 317.19
  Q 177.62 317.50 178.03 317.50
  L 190.97 317.50
  Q 191.43 317.50 191.08 317.20
  C 189.66 316.00 188.20 315.37 187.25 313.59
  Q 182.03 303.83 176.92 293.99
  A 0.88 0.87 48.0 0 1 176.96 293.12
  Q 181.64 285.96 186.31 278.81
  Q 187.49 277.01 190.30 275.64
  Q 190.97 275.31 190.23 275.29
  L 184.22 275.16
  Q 183.66 275.15 183.90 275.65
  Q 184.62 277.17 183.51 279.01
  Q 179.93 285.00 175.87 290.68
  Q 175.49 291.21 175.18 290.64
  Z"
/>
<path fill="#005844" d="
  M 233.98 98.50
  L 197.01 98.50
  Q 196.49 98.50 196.49 97.98
  L 196.50 87.03
  Q 196.50 86.50 197.03 86.50
  L 284.12 86.50
  Q 284.52 86.50 284.52 86.90
  L 284.50 98.03
  Q 284.50 98.51 284.02 98.51
  L 247.25 98.50
  Q 246.75 98.50 246.75 99.00
  L 246.76 244.22
  Q 246.76 244.76 246.21 244.76
  L 234.75 244.75
  Q 234.24 244.75 234.24 244.25
  L 234.25 98.77
  Q 234.25 98.50 233.98 98.50
  Z"
/>
<path fill="#005844" d="
  M 194.64 125.95
  Q 194.00 124.48 194.00 126.09
  L 194.00 224.37
  A 0.62 0.62 0.0 0 1 193.38 224.99
  L 181.25 225.00
  Q 180.75 225.00 180.75 224.50
  L 180.75 107.15
  Q 180.75 106.74 181.15 106.74
  L 198.29 106.75
  Q 199.00 106.75 199.28 107.40
  Q 215.33 144.59 231.50 181.92
  Q 232.50 184.23 232.49 186.76
  Q 232.47 199.85 232.55 212.92
  Q 232.55 213.15 232.46 212.94
  L 194.64 125.95
  Z"
/>
<path fill="#005844" d="
  M 286.30 126.06
  L 248.54 212.41
  Q 248.23 213.12 248.23 212.35
  Q 248.26 199.65 248.26 186.77
  Q 248.26 184.23 249.27 181.91
  Q 265.59 144.48 281.71 107.41
  Q 282.00 106.75 282.73 106.75
  L 299.75 106.75
  Q 300.25 106.75 300.25 107.25
  L 300.26 224.50
  Q 300.26 225.00 299.75 225.00
  L 287.75 225.00
  Q 286.99 225.00 286.99 224.25
  L 287.00 126.21
  Q 287.00 124.48 286.30 126.06
  Z"
/>
<path fill="#005844" d="
  M 66.70 283.69
  Q 66.86 298.20 66.74 313.68
  C 66.73 315.14 67.36 316.01 68.41 316.83
  Q 68.93 317.24 68.26 317.24
  L 63.00 317.26
  Q 62.29 317.26 62.87 316.85
  Q 64.73 315.55 64.74 313.50
  Q 64.77 295.89 64.73 278.28
  C 64.72 276.98 63.13 275.60 61.69 274.92
  Q 61.28 274.72 61.74 274.72
  L 71.97 274.76
  A 0.67 0.65 -10.0 0 1 72.57 275.17
  L 84.61 305.73
  Q 84.94 306.55 85.26 305.73
  L 97.19 275.35
  Q 97.43 274.75 98.07 274.75
  L 107.72 274.75
  Q 107.98 274.75 107.83 274.96
  Q 107.72 275.13 107.47 275.15
  A 2.55 2.17 87.5 0 0 105.53 277.64
  Q 105.47 295.43 105.52 313.30
  C 105.53 314.96 106.01 315.76 107.18 316.80
  Q 107.72 317.28 107.00 317.28
  L 95.76 317.25
  Q 95.27 317.25 95.64 316.92
  Q 97.50 315.22 97.49 312.25
  Q 97.49 296.74 97.51 282.10
  Q 97.51 280.46 96.90 281.99
  L 83.18 316.80
  A 0.77 0.76 -78.2 0 1 82.46 317.28
  L 81.30 317.26
  Q 80.66 317.24 80.42 316.64
  L 67.37 283.56
  Q 66.68 281.82 66.70 283.69
  Z"
/>
<path fill="#005844" d="
  M 276.28 300.51
  Q 276.18 307.08 276.28 313.66
  C 276.30 315.21 276.84 315.88 277.91 316.83
  Q 278.38 317.25 277.75 317.25
  L 266.73 317.25
  Q 265.95 317.25 266.51 316.70
  Q 268.23 315.02 268.23 313.26
  Q 268.31 286.41 268.22 279.00
  Q 268.19 276.45 265.97 275.05
  Q 265.50 274.75 266.05 274.75
  Q 275.52 274.72 284.95 274.81
  Q 286.71 274.82 289.37 275.52
  C 300.42 278.44 303.35 292.52 292.31 297.83
  A 0.25 0.24 42.9 0 0 292.33 298.28
  C 297.00 300.10 298.76 303.68 298.98 308.45
  C 299.15 312.10 298.25 314.73 301.95 316.98
  Q 302.24 317.15 301.90 317.18
  Q 298.39 317.47 295.74 317.04
  C 285.63 315.41 297.06 300.22 284.49 300.07
  Q 278.90 300.00 276.85 299.96
  Q 276.29 299.95 276.28 300.51
  Z
  M 276.25 277.04
  L 276.25 297.82
  A 0.40 0.40 0.0 0 0 276.65 298.22
  L 282.14 298.22
  A 9.38 8.85 90.0 0 0 290.99 288.84
  L 290.99 286.02
  A 9.38 8.85 -90.0 0 0 282.14 276.64
  L 276.65 276.64
  A 0.40 0.40 0.0 0 0 276.25 277.04
  Z"
/>
<path fill="#005844" d="
  M 351.77 278.25
  C 351.75 276.77 351.14 275.89 349.75 275.00
  Q 349.31 274.71 349.84 274.72
  C 364.25 274.85 378.16 271.53 383.59 289.24
  C 386.54 298.89 382.59 312.71 371.94 316.19
  C 366.20 318.07 356.95 317.31 350.30 317.23
  Q 349.65 317.22 350.17 316.84
  Q 351.99 315.51 351.99 313.75
  Q 352.02 296.00 351.77 278.25
  Z
  M 360.07 277.34
  L 359.93 315.00
  A 0.73 0.73 0.0 0 0 360.66 315.74
  L 362.47 315.74
  A 17.90 13.16 -89.8 0 0 375.69 297.89
  L 375.71 294.57
  A 17.90 13.16 -89.8 0 0 362.61 276.62
  L 360.80 276.62
  A 0.73 0.73 0.0 0 0 360.07 277.34
  Z"
/>
<path fill="#005844" d="
  M 119.96 307.28
  L 117.33 314.29
  A 1.80 1.79 35.0 0 0 117.66 316.12
  Q 118.08 316.62 118.67 316.87
  Q 119.64 317.28 118.75 317.28
  L 112.24 317.25
  Q 111.26 317.24 112.11 316.76
  Q 114.44 315.43 115.09 313.77
  Q 122.56 294.54 129.97 275.30
  Q 130.18 274.75 130.76 274.75
  L 131.99 274.75
  A 0.72 0.72 0.0 0 1 132.66 275.21
  Q 139.86 293.85 146.94 312.54
  C 147.74 314.67 148.97 315.80 150.62 316.86
  Q 151.23 317.25 150.51 317.25
  L 138.51 317.25
  Q 137.95 317.25 138.27 316.79
  C 139.94 314.41 136.97 309.11 136.30 307.29
  Q 136.11 306.75 135.54 306.75
  L 120.71 306.76
  Q 120.16 306.77 119.96 307.28
  Z
  M 121.18 304.29
  A 0.33 0.33 0.0 0 0 121.49 304.74
  L 134.77 304.74
  A 0.33 0.33 0.0 0 0 135.08 304.29
  L 128.44 286.92
  A 0.33 0.33 0.0 0 0 127.82 286.92
  L 121.18 304.29
  Z"
/>
<path fill="#005844" d="
  M 237.69 276.80
  C 232.18 276.57 225.96 276.17 223.05 281.05
  A 0.43 0.43 0.0 0 1 222.25 280.76
  L 223.24 275.21
  Q 223.32 274.75 223.79 274.75
  L 260.76 274.75
  Q 261.29 274.75 261.38 275.27
  L 262.38 281.27
  Q 262.46 281.78 262.09 281.42
  Q 261.43 280.79 260.84 280.15
  C 257.13 276.13 252.74 276.52 246.76 276.84
  Q 246.27 276.87 246.27 277.36
  Q 246.21 294.82 246.27 312.25
  Q 246.28 315.38 248.06 317.02
  Q 248.31 317.25 247.97 317.25
  L 236.74 317.25
  Q 236.05 317.26 236.57 316.79
  Q 238.18 315.37 238.22 314.00
  Q 238.42 306.58 238.18 277.31
  Q 238.18 276.82 237.69 276.80
  Z"
/>
<path fill="#005844" d="
  M 329.53 306.75
  L 314.71 306.75
  Q 314.15 306.75 313.95 307.28
  L 311.26 314.46
  Q 311.07 314.99 311.31 315.50
  Q 311.70 316.29 312.41 316.77
  Q 313.12 317.26 312.25 317.26
  L 306.25 317.25
  Q 305.39 317.25 306.13 316.81
  Q 308.44 315.43 309.40 312.96
  Q 316.71 294.13 323.98 275.29
  Q 324.19 274.75 324.77 274.75
  L 325.94 274.75
  Q 326.49 274.75 326.69 275.27
  Q 333.86 293.89 340.94 312.54
  C 341.78 314.74 342.98 315.78 344.63 316.85
  Q 345.24 317.25 344.51 317.25
  L 332.49 317.25
  Q 331.74 317.25 332.24 316.70
  Q 332.87 316.01 333.03 315.03
  A 1.36 1.30 40.9 0 0 332.96 314.30
  L 330.29 307.27
  Q 330.09 306.75 329.53 306.75
  Z
  M 315.14 304.31
  A 0.32 0.32 0.0 0 0 315.44 304.75
  L 328.82 304.75
  A 0.32 0.32 0.0 0 0 329.12 304.31
  L 322.43 286.93
  A 0.32 0.32 0.0 0 0 321.83 286.93
  L 315.14 304.31
  Z"
/>
<path fill="#005844" d="
  M 398.00 297.52
  L 398.00 314.98
  Q 398.00 315.46 398.49 315.47
  C 405.91 315.61 415.18 317.29 420.01 310.40
  Q 420.35 309.92 420.25 310.50
  L 419.19 316.81
  Q 419.12 317.25 418.68 317.25
  L 388.28 317.25
  Q 387.89 317.25 388.17 316.98
  Q 389.97 315.16 389.98 311.75
  Q 390.07 288.96 389.97 279.75
  Q 389.93 276.88 387.63 275.11
  Q 387.15 274.75 387.75 274.75
  L 418.70 274.75
  Q 419.16 274.75 419.23 275.20
  L 420.10 281.09
  Q 420.17 281.57 419.80 281.26
  C 416.95 278.94 416.43 277.51 412.44 276.86
  C 409.30 276.35 402.83 276.71 398.49 276.77
  Q 398.00 276.77 398.00 277.27
  L 398.00 294.74
  Q 398.00 295.22 398.48 295.24
  C 402.21 295.42 407.80 295.96 410.24 291.79
  Q 411.00 290.49 411.00 292.00
  L 410.99 300.25
  A 0.43 0.43 0.0 0 1 410.18 300.45
  C 407.94 296.02 402.01 296.82 398.48 297.01
  Q 398.00 297.03 398.00 297.52
  Z"
/>
<path fill="#005844" d="
  M 175.87 290.68
  Q 179.93 285.00 183.51 279.01
  Q 184.62 277.17 183.90 275.65
  Q 183.66 275.15 184.22 275.16
  L 190.23 275.29
  Q 190.97 275.31 190.30 275.64
  Q 187.49 277.01 186.31 278.81
  Q 181.64 285.96 176.96 293.12
  A 0.88 0.87 48.0 0 0 176.92 293.99
  Q 182.03 303.83 187.25 313.59
  C 188.20 315.37 189.66 316.00 191.08 317.20
  Q 191.43 317.50 190.97 317.50
  L 178.03 317.50
  Q 177.62 317.50 177.89 317.19
  Q 179.25 315.67 177.98 313.27
  Q 174.92 307.45 171.94 301.71
  A 0.33 0.32 -41.7 0 0 171.38 301.68
  Q 167.16 308.05 163.04 314.53
  Q 162.24 315.79 163.47 316.97
  Q 164.02 317.50 163.26 317.50
  L 156.73 317.49
  Q 155.89 317.49 156.64 317.10
  C 158.66 316.06 159.50 315.57 160.74 313.75
  Q 165.61 306.60 170.36 299.35
  Q 170.55 299.06 170.39 298.76
  Q 165.14 288.96 159.94 279.04
  Q 158.87 276.99 156.38 275.68
  Q 155.53 275.22 156.50 275.22
  L 168.70 275.24
  Q 169.08 275.24 168.91 275.58
  Q 168.16 277.06 169.23 279.26
  Q 172.04 285.03 175.18 290.64
  Q 175.49 291.21 175.87 290.68
  Z"
/>
<path fill="#ffffff" d="
  M 276.25 277.04
  A 0.40 0.40 0.0 0 1 276.65 276.64
  L 282.14 276.64
  A 9.38 8.85 90.0 0 1 290.99 286.02
  L 290.99 288.84
  A 9.38 8.85 -90.0 0 1 282.14 298.22
  L 276.65 298.22
  A 0.40 0.40 0.0 0 1 276.25 297.82
  L 276.25 277.04
  Z"
/>
<path fill="#ffffff" d="
  M 360.07 277.34
  A 0.73 0.73 0.0 0 1 360.80 276.62
  L 362.61 276.62
  A 17.90 13.16 -89.8 0 1 375.71 294.57
  L 375.69 297.89
  A 17.90 13.16 -89.8 0 1 362.47 315.74
  L 360.66 315.74
  A 0.73 0.73 0.0 0 1 359.93 315.00
  L 360.07 277.34
  Z"
/>
<path fill="#ffffff" d="
  M 121.18 304.29
  L 127.82 286.92
  A 0.33 0.33 0.0 0 1 128.44 286.92
  L 135.08 304.29
  A 0.33 0.33 0.0 0 1 134.77 304.74
  L 121.49 304.74
  A 0.33 0.33 0.0 0 1 121.18 304.29
  Z"
/>
<path fill="#ffffff" d="
  M 315.14 304.31
  L 321.83 286.93
  A 0.32 0.32 0.0 0 1 322.43 286.93
  L 329.12 304.31
  A 0.32 0.32 0.0 0 1 328.82 304.75
  L 315.44 304.75
  A 0.32 0.32 0.0 0 1 315.14 304.31
  Z"
/>
</svg>
